<?xml version="1.0" encoding="utf-8"?>
<!-- Generator: Adobe Illustrator 16.0.0, SVG Export Plug-In . SVG Version: 6.00 Build 0)  -->
<!DOCTYPE svg PUBLIC "-//W3C//DTD SVG 1.1//EN" "http://www.w3.org/Graphics/SVG/1.1/DTD/svg11.dtd">
<svg version="1.1" id="Layer_1" xmlns="http://www.w3.org/2000/svg" xmlns:xlink="http://www.w3.org/1999/xlink" x="0px" y="0px"
	 width="300px" height="38px" viewBox="0 0 300 38" enable-background="new 0 0 300 38" xml:space="preserve">
<g>
	<path fill="#F1F2F2" d="M14.904,33.671l-1.097-5.523h-5.75L6.96,33.671c-0.151,0.731-0.599,1.097-1.343,1.097H2.799
		c-0.441,0-0.794-0.164-1.059-0.492c-0.278-0.314-0.372-0.693-0.284-1.135L6.866,6.15c0.139-0.731,0.58-1.097,1.324-1.097h5.485
		c0.744,0,1.191,0.366,1.343,1.097l5.391,26.99c0.076,0.441-0.019,0.82-0.284,1.135c-0.278,0.328-0.625,0.492-1.041,0.492h-2.837
		C15.491,34.768,15.043,34.402,14.904,33.671z M12.71,22.662l-1.778-8.89l-1.778,8.89H12.71z"/>
	<path fill="#F1F2F2" d="M40.231,10.557v18.707c0,1.476-0.561,2.762-1.684,3.858c-1.122,1.097-2.402,1.646-3.839,1.646H24.532
		c-0.908,0-1.362-0.454-1.362-1.362V6.415c0-0.908,0.454-1.362,1.362-1.362h10.157c1.45,0,2.736,0.555,3.858,1.665
		C39.67,7.827,40.231,9.107,40.231,10.557z M34.746,29.282V10.538h-6.071v18.744H34.746z"/>
	<path fill="#F1F2F2" d="M52.109,22.189c0.769-3.48,1.387-6.254,1.854-8.322c0.466-2.068,1.041-4.653,1.721-7.755
		c0.164-0.706,0.611-1.059,1.343-1.059h2.837c0.441,0,0.794,0.17,1.059,0.511c0.265,0.353,0.353,0.731,0.265,1.135l-6.034,27.029
		c-0.151,0.693-0.593,1.04-1.324,1.04h-3.461c-0.731,0-1.167-0.347-1.305-1.04L43.03,6.699c-0.101-0.403-0.013-0.782,0.265-1.135
		c0.265-0.341,0.618-0.511,1.059-0.511h2.837c0.719,0,1.167,0.353,1.343,1.059c0.681,3.102,1.248,5.687,1.702,7.755
		C50.69,15.936,51.314,18.709,52.109,22.189z"/>
	<path fill="#F1F2F2" d="M76.924,34.768h-7.736c-1.438,0-2.667-0.511-3.688-1.532s-1.532-2.251-1.532-3.688V6.415
		c0-0.908,0.454-1.362,1.362-1.362h11.481c0.908,0,1.362,0.454,1.362,1.362v2.78c0,0.896-0.454,1.343-1.362,1.343h-7.358v6.62h6.147
		c0.908,0,1.362,0.454,1.362,1.362v2.78c0,0.907-0.454,1.361-1.362,1.361h-6.147v6.62h7.471c0.908,0,1.362,0.454,1.362,1.362v2.761
		C78.286,34.313,77.832,34.768,76.924,34.768z"/>
	<path fill="#F1F2F2" d="M92.056,33.897L86.4,19.201v14.204c0,0.908-0.454,1.362-1.362,1.362h-2.742
		c-0.908,0-1.362-0.454-1.362-1.362V6.415c0-0.908,0.454-1.362,1.362-1.362h3.594c0.605,0,1.027,0.29,1.267,0.87l5.674,14.715V6.415
		c0-0.908,0.454-1.362,1.362-1.362h2.724c0.908,0,1.362,0.454,1.362,1.362v26.972c0,0.896-0.448,1.343-1.343,1.343l-3.594,0.02
		C92.711,34.762,92.283,34.478,92.056,33.897z"/>
	<path fill="#F1F2F2" d="M115.964,10.538h-4.085v22.867c0,0.908-0.454,1.362-1.362,1.362h-2.78c-0.908,0-1.362-0.454-1.362-1.362
		V10.538h-4.085c-0.908,0-1.362-0.447-1.362-1.343v-2.78c0-0.908,0.454-1.362,1.362-1.362h13.675c0.908,0,1.362,0.454,1.362,1.362
		v2.78C117.326,10.091,116.872,10.538,115.964,10.538z"/>
	<path fill="#F1F2F2" d="M131.53,34.768h-6.053c-1.463,0-2.746-0.545-3.849-1.636c-1.104-1.091-1.655-2.367-1.655-3.83V6.415
		c0-0.908,0.454-1.362,1.362-1.362h2.761c0.908,0,1.362,0.454,1.362,1.362v22.867h6.147V6.415c0-0.908,0.447-1.362,1.343-1.362h2.78
		c0.908,0,1.362,0.454,1.362,1.362v22.849c0,1.476-0.564,2.762-1.693,3.858S132.98,34.768,131.53,34.768z"/>
	<path fill="#F1F2F2" d="M155.438,34.768h-2.969c-0.605,0-1.021-0.29-1.248-0.87l-4.351-11.235h-1.626v10.743
		c0,0.908-0.454,1.362-1.362,1.362h-2.78c-0.908,0-1.362-0.454-1.362-1.362V6.415c0-0.908,0.454-1.362,1.362-1.362h9.665
		c1.451,0,2.736,0.552,3.859,1.655c1.123,1.104,1.684,2.387,1.684,3.849v6.583c0,1.16-0.359,2.213-1.078,3.158
		c-0.719,0.946-1.602,1.614-2.648,2.005l4.123,10.611c0.178,0.467,0.133,0.889-0.131,1.268
		C156.295,34.572,155.918,34.768,155.438,34.768z M150.804,17.158v-6.62h-5.561v6.62H150.804z"/>
	<path fill="#F1F2F2" d="M172.574,34.768h-7.736c-1.438,0-2.666-0.511-3.688-1.532s-1.531-2.251-1.531-3.688V6.415
		c0-0.908,0.453-1.362,1.361-1.362h11.48c0.908,0,1.361,0.454,1.361,1.362v2.78c0,0.896-0.453,1.343-1.361,1.343h-7.357v6.62h6.146
		c0.908,0,1.363,0.454,1.363,1.362v2.78c0,0.907-0.455,1.361-1.363,1.361h-6.146v6.62h7.471c0.908,0,1.363,0.454,1.363,1.362v2.761
		C173.938,34.313,173.482,34.768,172.574,34.768z"/>
	<path fill="#F1F2F2" d="M201.078,10.538h-4.086v22.867c0,0.908-0.453,1.362-1.361,1.362h-2.781c-0.906,0-1.361-0.454-1.361-1.362
		V10.538h-4.086c-0.906,0-1.361-0.447-1.361-1.343v-2.78c0-0.908,0.455-1.362,1.361-1.362h13.676c0.908,0,1.361,0.454,1.361,1.362
		v2.78C202.439,10.091,201.986,10.538,201.078,10.538z"/>
	<path fill="#F1F2F2" d="M220.938,34.768h-2.779c-0.908,0-1.361-0.454-1.361-1.362V22.662h-6.223v10.743
		c0,0.908-0.449,1.362-1.344,1.362h-2.799c-0.896,0-1.344-0.454-1.344-1.362V6.415c0-0.908,0.447-1.362,1.344-1.362h2.799
		c0.895,0,1.344,0.454,1.344,1.362v10.743h6.223V6.415c0-0.908,0.453-1.362,1.361-1.362h2.779c0.896,0,1.344,0.454,1.344,1.362
		v26.99C222.281,34.313,221.834,34.768,220.938,34.768z"/>
	<path fill="#F1F2F2" d="M237.885,34.768h-7.736c-1.438,0-2.666-0.511-3.688-1.532s-1.531-2.251-1.531-3.688V6.415
		c0-0.908,0.453-1.362,1.361-1.362h11.48c0.908,0,1.361,0.454,1.361,1.362v2.78c0,0.896-0.453,1.343-1.361,1.343h-7.357v6.62h6.146
		c0.908,0,1.363,0.454,1.363,1.362v2.78c0,0.907-0.455,1.361-1.363,1.361h-6.146v6.62h7.471c0.908,0,1.363,0.454,1.363,1.362v2.761
		C239.248,34.313,238.793,34.768,237.885,34.768z"/>
	<path fill="#F1F2F2" d="M261.074,34.768h-2.779c-0.908,0-1.361-0.454-1.361-1.362V18.028l-3.557,7.585
		c-0.24,0.517-0.65,0.775-1.23,0.775s-0.982-0.259-1.209-0.775l-3.557-7.585v15.377c0,0.908-0.453,1.362-1.361,1.362h-2.781
		c-0.895,0-1.342-0.454-1.342-1.362V6.415c0-0.908,0.447-1.362,1.342-1.362h3.273c0.566,0,0.977,0.265,1.229,0.794l4.406,9.419
		l4.428-9.419c0.238-0.53,0.648-0.794,1.229-0.794h3.271c0.908,0,1.363,0.454,1.363,1.362v26.99
		C262.438,34.313,261.982,34.768,261.074,34.768z"/>
	<path fill="#F1F2F2" d="M278.041,34.768h-7.736c-1.438,0-2.668-0.511-3.688-1.532c-1.021-1.021-1.533-2.251-1.533-3.688V6.415
		c0-0.908,0.455-1.362,1.361-1.362h11.482c0.908,0,1.361,0.454,1.361,1.362v2.78c0,0.896-0.453,1.343-1.361,1.343h-7.357v6.62h6.146
		c0.908,0,1.361,0.454,1.361,1.362v2.78c0,0.907-0.453,1.361-1.361,1.361h-6.146v6.62h7.471c0.908,0,1.361,0.454,1.361,1.362v2.761
		C279.402,34.313,278.949,34.768,278.041,34.768z"/>
	<path fill="#F1F2F2" d="M293.076,34.768h-5.521c-1.463,0-2.746-0.545-3.85-1.636s-1.654-2.374-1.654-3.85v-1.04
		c0-0.908,0.447-1.362,1.342-1.362h2.781c0.908,0,1.361,0.454,1.361,1.362v1.04h5.541v-6.62h-5.521c-1.463,0-2.746-0.548-3.85-1.646
		c-1.104-1.097-1.654-2.376-1.654-3.839v-6.64c0-1.45,0.551-2.727,1.654-3.83c1.104-1.103,2.387-1.655,3.85-1.655h5.521
		c1.451,0,2.729,0.548,3.832,1.646c1.102,1.097,1.654,2.371,1.654,3.821v0.908c0,0.896-0.447,1.343-1.344,1.343h-2.779
		c-0.908,0-1.363-0.447-1.363-1.343v-0.889h-5.541v6.62h5.541c1.451,0,2.729,0.549,3.832,1.646c1.102,1.098,1.654,2.371,1.654,3.821
		v6.677c0,1.475-0.553,2.755-1.654,3.839C295.805,34.226,294.527,34.768,293.076,34.768z"/>
</g>
</svg>
