<?xml version="1.0" encoding="utf-8"?>
<!-- Generator: Adobe Illustrator 16.0.0, SVG Export Plug-In . SVG Version: 6.00 Build 0)  -->
<!DOCTYPE svg PUBLIC "-//W3C//DTD SVG 1.1//EN" "http://www.w3.org/Graphics/SVG/1.1/DTD/svg11.dtd">
<svg version="1.1" id="Layer_1" xmlns="http://www.w3.org/2000/svg" xmlns:xlink="http://www.w3.org/1999/xlink" x="0px" y="0px"
	 width="300px" height="36px" viewBox="0 0 300 36" enable-background="new 0 0 300 36" xml:space="preserve">
<g enable-background="new    ">
	<path fill="#F1F0F0" d="M14.901,32.607l-1.097-5.522H8.056l-1.097,5.522c-0.151,0.731-0.599,1.097-1.342,1.097H2.799
		c-0.441,0-0.794-0.164-1.059-0.491c-0.277-0.315-0.372-0.693-0.284-1.135L6.865,5.093c0.138-0.731,0.58-1.098,1.324-1.098h5.484
		c0.744,0,1.191,0.366,1.343,1.098l5.39,26.985c0.076,0.441-0.019,0.819-0.284,1.135c-0.278,0.327-0.624,0.491-1.04,0.491h-2.837
		C15.488,33.704,15.04,33.339,14.901,32.607z M12.708,21.602l-1.778-8.889l-1.777,8.889H12.708z"/>
	<path fill="#F1F0F0" d="M40.223,9.498v18.703c0,1.475-0.562,2.761-1.683,3.857c-1.123,1.097-2.402,1.646-3.839,1.646H24.527
		c-0.908,0-1.362-0.454-1.362-1.361V5.357c0-0.908,0.454-1.362,1.362-1.362h10.155c1.45,0,2.735,0.556,3.858,1.664
		C39.662,6.77,40.223,8.049,40.223,9.498z M34.739,28.22V9.479h-6.07v18.74H34.739z"/>
	<path fill="#F1F0F0" d="M52.099,21.129c0.769-3.479,1.387-6.253,1.853-8.321c0.466-2.067,1.04-4.651,1.721-7.753
		c0.164-0.706,0.611-1.06,1.342-1.06h2.837c0.441,0,0.794,0.171,1.059,0.511c0.265,0.354,0.353,0.731,0.265,1.135l-6.033,27.023
		c-0.151,0.693-0.593,1.04-1.324,1.04h-3.46c-0.731,0-1.167-0.347-1.305-1.04L43.022,5.641c-0.101-0.403-0.013-0.781,0.265-1.135
		c0.265-0.34,0.618-0.511,1.059-0.511h2.836c0.719,0,1.166,0.354,1.343,1.06c0.681,3.102,1.248,5.686,1.702,7.753
		C50.681,14.876,51.305,17.649,52.099,21.129z"/>
	<path fill="#F1F0F0" d="M76.909,33.704h-7.734c-1.437,0-2.667-0.511-3.688-1.532c-1.021-1.021-1.532-2.25-1.532-3.688V5.357
		c0-0.908,0.454-1.362,1.362-1.362h11.479c0.908,0,1.362,0.454,1.362,1.362v2.779c0,0.896-0.454,1.343-1.362,1.343h-7.356v6.619
		h6.146c0.908,0,1.362,0.453,1.362,1.361v2.779c0,0.908-0.454,1.362-1.362,1.362h-6.146v6.618h7.47c0.908,0,1.362,0.454,1.362,1.362
		v2.761C78.271,33.25,77.817,33.704,76.909,33.704z"/>
	<path fill="#F1F0F0" d="M92.038,32.834l-5.654-14.693v14.202c0,0.907-0.454,1.361-1.362,1.361H82.28
		c-0.908,0-1.362-0.454-1.362-1.361V5.357c0-0.908,0.454-1.362,1.362-1.362h3.593c0.605,0,1.027,0.29,1.267,0.87l5.673,14.713V5.357
		c0-0.908,0.454-1.362,1.361-1.362h2.723c0.908,0,1.362,0.454,1.362,1.362v26.966c0,0.896-0.448,1.343-1.343,1.343l-3.593,0.02
		C92.693,33.698,92.265,33.414,92.038,32.834z"/>
	<path fill="#F1F0F0" d="M115.941,9.479h-4.085v22.863c0,0.907-0.454,1.361-1.361,1.361h-2.78c-0.908,0-1.361-0.454-1.361-1.361
		V9.479h-4.084c-0.908,0-1.362-0.447-1.362-1.343V5.357c0-0.908,0.454-1.362,1.362-1.362h13.672c0.908,0,1.361,0.454,1.361,1.362
		v2.779C117.303,9.032,116.849,9.479,115.941,9.479z"/>
	<path fill="#F1F0F0" d="M131.504,33.704h-6.051c-1.462,0-2.745-0.545-3.848-1.636c-1.104-1.091-1.655-2.367-1.655-3.829V5.357
		c0-0.908,0.454-1.362,1.362-1.362h2.761c0.908,0,1.361,0.454,1.361,1.362V28.22h6.146V5.357c0-0.908,0.448-1.362,1.343-1.362h2.78
		c0.908,0,1.362,0.454,1.362,1.362v22.844c0,1.475-0.564,2.761-1.692,3.857C134.243,33.155,132.954,33.704,131.504,33.704z"/>
	<path fill="#F1F0F0" d="M155.408,33.704h-2.969c-0.605,0-1.021-0.29-1.248-0.87l-4.35-11.232h-1.626v10.741
		c0,0.907-0.454,1.361-1.361,1.361h-2.78c-0.908,0-1.362-0.454-1.362-1.361V5.357c0-0.908,0.454-1.362,1.362-1.362h9.663
		c1.45,0,2.736,0.552,3.858,1.655s1.683,2.386,1.683,3.848v6.581c0,1.16-0.359,2.213-1.078,3.158s-1.601,1.614-2.646,2.005
		l4.122,10.608c0.177,0.467,0.132,0.889-0.132,1.268C156.266,33.509,155.887,33.704,155.408,33.704z M150.774,16.099V9.479h-5.56
		v6.619H150.774z"/>
	<path fill="#F1F0F0" d="M172.541,33.704h-7.734c-1.438,0-2.667-0.511-3.688-1.532c-1.021-1.021-1.532-2.25-1.532-3.688V5.357
		c0-0.908,0.454-1.362,1.362-1.362h11.479c0.907,0,1.361,0.454,1.361,1.362v2.779c0,0.896-0.454,1.343-1.361,1.343h-7.357v6.619
		h6.146c0.908,0,1.361,0.453,1.361,1.361v2.779c0,0.908-0.453,1.362-1.361,1.362h-6.146v6.618h7.471
		c0.907,0,1.361,0.454,1.361,1.362v2.761C173.902,33.25,173.448,33.704,172.541,33.704z"/>
	<path fill="#F1F0F0" d="M201.039,9.479h-4.085v22.863c0,0.907-0.454,1.361-1.361,1.361h-2.78c-0.908,0-1.361-0.454-1.361-1.361
		V9.479h-4.084c-0.908,0-1.362-0.447-1.362-1.343V5.357c0-0.908,0.454-1.362,1.362-1.362h13.672c0.908,0,1.361,0.454,1.361,1.362
		v2.779C202.4,9.032,201.947,9.479,201.039,9.479z"/>
	<path fill="#F1F0F0" d="M220.895,33.704h-2.779c-0.908,0-1.361-0.454-1.361-1.361V21.602h-6.223v10.741
		c0,0.907-0.447,1.361-1.342,1.361h-2.799c-0.896,0-1.343-0.454-1.343-1.361V5.357c0-0.908,0.447-1.362,1.343-1.362h2.799
		c0.895,0,1.342,0.454,1.342,1.362v10.741h6.223V5.357c0-0.908,0.453-1.362,1.361-1.362h2.779c0.896,0,1.344,0.454,1.344,1.362
		v26.985C222.238,33.25,221.79,33.704,220.895,33.704z"/>
	<path fill="#F1F0F0" d="M237.839,33.704h-7.734c-1.437,0-2.667-0.511-3.688-1.532c-1.021-1.021-1.532-2.25-1.532-3.688V5.357
		c0-0.908,0.455-1.362,1.362-1.362h11.479c0.907,0,1.362,0.454,1.362,1.362v2.779c0,0.896-0.455,1.343-1.362,1.343h-7.356v6.619
		h6.146c0.907,0,1.361,0.453,1.361,1.361v2.779c0,0.908-0.454,1.362-1.361,1.362h-6.146v6.618h7.47c0.907,0,1.362,0.454,1.362,1.362
		v2.761C239.201,33.25,238.746,33.704,237.839,33.704z"/>
	<path fill="#F1F0F0" d="M261.023,33.704h-2.779c-0.908,0-1.361-0.454-1.361-1.361V16.968l-3.556,7.584
		c-0.239,0.517-0.649,0.775-1.229,0.775s-0.983-0.259-1.211-0.775l-3.555-7.584v15.375c0,0.907-0.453,1.361-1.361,1.361h-2.779
		c-0.896,0-1.344-0.454-1.344-1.361V5.357c0-0.908,0.447-1.362,1.344-1.362h3.271c0.566,0,0.977,0.265,1.229,0.795l4.406,9.417
		l4.426-9.417c0.238-0.53,0.648-0.795,1.229-0.795h3.271c0.908,0,1.361,0.454,1.361,1.362v26.985
		C262.385,33.25,261.932,33.704,261.023,33.704z"/>
	<path fill="#F1F0F0" d="M277.986,33.704h-7.734c-1.438,0-2.666-0.511-3.688-1.532c-1.021-1.021-1.531-2.25-1.531-3.688V5.357
		c0-0.908,0.453-1.362,1.361-1.362h11.479c0.908,0,1.361,0.454,1.361,1.362v2.779c0,0.896-0.453,1.343-1.361,1.343h-7.356v6.619
		h6.146c0.908,0,1.362,0.453,1.362,1.361v2.779c0,0.908-0.454,1.362-1.362,1.362h-6.146v6.618h7.47c0.908,0,1.361,0.454,1.361,1.362
		v2.761C279.348,33.25,278.895,33.704,277.986,33.704z"/>
	<path fill="#F1F0F0" d="M293.021,33.704h-5.522c-1.462,0-2.744-0.545-3.848-1.636s-1.654-2.373-1.654-3.849v-1.04
		c0-0.907,0.447-1.361,1.342-1.361h2.78c0.907,0,1.361,0.454,1.361,1.361v1.04h5.541v-6.618h-5.522
		c-1.462,0-2.744-0.549-3.848-1.646s-1.654-2.376-1.654-3.839V9.479c0-1.449,0.551-2.726,1.654-3.829s2.386-1.655,3.848-1.655h5.522
		c1.45,0,2.726,0.549,3.829,1.646s1.654,2.37,1.654,3.82v0.907c0,0.896-0.447,1.343-1.342,1.343h-2.779
		c-0.908,0-1.362-0.447-1.362-1.343V9.479h-5.541v6.619h5.541c1.45,0,2.726,0.548,3.829,1.645c1.104,1.098,1.654,2.371,1.654,3.82
		v6.676c0,1.475-0.551,2.755-1.654,3.839S294.471,33.704,293.021,33.704z"/>
</g>
</svg>
