<?xml version="1.0" encoding="utf-8"?>
<!-- Generator: Adobe Illustrator 16.0.0, SVG Export Plug-In . SVG Version: 6.00 Build 0)  -->
<!DOCTYPE svg PUBLIC "-//W3C//DTD SVG 1.1//EN" "http://www.w3.org/Graphics/SVG/1.1/DTD/svg11.dtd">
<svg version="1.1" id="Layer_1" xmlns="http://www.w3.org/2000/svg" xmlns:xlink="http://www.w3.org/1999/xlink" x="0px" y="0px"
	 width="100px" height="60px" viewBox="0 0 100 60" enable-background="new 0 0 100 60" xml:space="preserve">
<path id="mountains" fill="#FFCD3A" stroke="#FFCD3A" stroke-miterlimit="10" d="M98.335,55.854l-26.42-40.018
	c-0.087-0.119-0.171-0.226-0.278-0.333c-0.085-0.097-0.183-0.172-0.29-0.247c-0.01-0.009-0.03-0.021-0.041-0.031
	c-0.022-0.01-0.043-0.032-0.064-0.032c-0.065-0.044-0.14-0.087-0.206-0.119c-0.066-0.032-0.13-0.054-0.192-0.075
	c-0.066-0.022-0.143-0.044-0.215-0.064c-0.076-0.021-0.15-0.032-0.213-0.043c-0.045-0.01-0.087-0.01-0.13-0.01
	c-0.021-0.011-0.044-0.011-0.066-0.011H70.08c-0.087,0-0.163,0.011-0.248,0.022c-0.074,0.01-0.15,0.022-0.215,0.043
	c-0.076,0.019-0.141,0.042-0.204,0.063H69.4c-0.074,0.021-0.139,0.053-0.192,0.075c-0.065,0.031-0.13,0.064-0.191,0.119
	c-0.068,0.032-0.133,0.075-0.196,0.128c-0.054,0.033-0.096,0.064-0.141,0.108c-0.042,0.032-0.074,0.075-0.118,0.129
	c-0.031,0.032-0.063,0.054-0.087,0.086c-0.043,0.042-0.074,0.096-0.119,0.15c-0.009,0.01-0.019,0.032-0.029,0.043l-9.327,14.116
	L51.707,18.91c-0.054-0.086-0.107-0.172-0.173-0.258L40.631,2.14l-0.107-0.172c-0.054-0.075-0.108-0.151-0.173-0.227
	c-0.054-0.063-0.118-0.129-0.193-0.193c-0.063-0.054-0.128-0.107-0.204-0.161c-0.031-0.021-0.063-0.043-0.107-0.063
	c-0.063-0.044-0.139-0.085-0.205-0.119c-0.053-0.022-0.119-0.054-0.192-0.076c-0.063-0.021-0.14-0.042-0.214-0.063
	c-0.064-0.021-0.14-0.031-0.215-0.043C38.935,1.011,38.859,1,38.773,1h-0.085c-0.087,0-0.162,0.01-0.247,0.022
	c-0.063,0.01-0.139,0.022-0.214,0.043c-0.076,0.022-0.151,0.042-0.215,0.063c-0.064,0.022-0.129,0.042-0.193,0.076
	c-0.063,0.034-0.129,0.064-0.193,0.119c-0.021,0-0.054,0.022-0.075,0.032c-0.247,0.161-0.451,0.375-0.612,0.612L21.123,25.924
	L1.355,55.854C0.7,56.842,0.98,58.175,1.966,58.829c0.366,0.247,0.775,0.354,1.183,0.354c0.697,0,1.386-0.331,1.793-0.965
	l18.628-28.212l5.232,2.794c0.321,0.171,0.665,0.258,1.009,0.258c0.665,0,1.311-0.312,1.729-0.871l4.501-6.091l6.092,3.996
	c0.936,0.612,2.181,0.409,2.869-0.473l4.695-5.962l7.543,11.419l15.276,23.143c0.419,0.634,1.098,0.965,1.796,0.965
	c0.407,0,0.824-0.107,1.18-0.354c0.998-0.654,1.269-1.987,0.613-2.976l-14.525-22l8.54-12.935l24.636,37.3
	c0.407,0.634,1.098,0.965,1.794,0.965c0.396,0,0.816-0.107,1.18-0.354C98.72,58.175,98.988,56.842,98.335,55.854z M42.846,25.418
	L36.7,21.39c-0.945-0.624-2.223-0.397-2.9,0.526l-4.609,6.221l-3.244-1.729L38.73,7.049l8.477,12.827L42.846,25.418z"/>
</svg>
